<svg xmlns="http://www.w3.org/2000/svg" width="81" height="81" viewBox="0 0 81 81">
  <g id="그룹_2192" data-name="그룹 2192" transform="translate(-216 -16)">
    <circle id="타원_95" data-name="타원 95" cx="40.5" cy="40.5" r="40.5" transform="translate(216 16)" fill="#fff"/>
    <g id="그룹_2172" data-name="그룹 2172" transform="translate(226.778 25.628)">
      <g id="XMLID_312_" transform="translate(0 0)">
        <path id="XMLID_317_" d="M91.872,206.97a15.854,15.854,0,0,0-26.7,0L57.15,219.49a9.239,9.239,0,0,0,11.5,13.444l0,0a24.538,24.538,0,0,1,19.753,0A9.239,9.239,0,0,0,99.9,219.49Z" transform="translate(-48.369 -177.484)" fill="#ffe3b5"/>
        <path id="XMLID_316_" d="M10.343,139.7c3.69-1.418,5.328-6.08,3.662-10.409S8,122.6,4.31,124.019-1.013,130.1.651,134.427,6.661,141.116,10.343,139.7Z" transform="translate(0 -111.418)" fill="#ffe3b5"/>
        <path id="XMLID_315_" d="M131.432,51.321c4.806,0,8.7-4.576,8.7-10.218s-3.9-10.221-8.7-10.221-8.7,4.576-8.7,10.221S126.628,51.321,131.432,51.321Z" transform="translate(-106.598 -30.882)" fill="#ffe3b5"/>
        <path id="XMLID_314_" d="M275.111,78.79c4.561,1.516,9.7-1.6,11.483-6.953s-.476-10.927-5.034-12.443-9.7,1.6-11.482,6.954S270.554,77.275,275.111,78.79Z" transform="translate(-234.051 -55.314)" fill="#ffe3b5"/>
        <path id="XMLID_313_" d="M386.284,189.675c-3.178-2.348-7.989-1.233-10.75,2.5s-2.419,8.659.753,11.007,7.988,1.233,10.75-2.5S389.455,192.023,386.284,189.675Z" transform="translate(-324.552 -167.735)" fill="#ffe3b5"/>
      </g>
    </g>
  </g>
</svg>
