<svg xmlns="http://www.w3.org/2000/svg" width="79.012" height="72.142" viewBox="0 0 79.012 72.142">
  <path id="ic_add_a_photo_24px" d="M10.306,11.306V1h6.871V11.306H27.482v6.871H17.177V28.482H10.306V18.177H0V11.306ZM20.612,31.918V21.612H30.918V11.306H54.965l6.287,6.871h10.89a6.891,6.891,0,0,1,6.871,6.871V66.271a6.891,6.891,0,0,1-6.871,6.871H17.177a6.891,6.891,0,0,1-6.871-6.871V31.918ZM44.659,62.836A17.177,17.177,0,1,0,27.482,45.659,17.183,17.183,0,0,0,44.659,62.836ZM33.666,45.659A10.993,10.993,0,1,0,44.659,34.666,10.981,10.981,0,0,0,33.666,45.659Z" transform="translate(0 -1)" fill="#ffc23b"/>
</svg>
